<svg width="90" height="29" viewBox="0 0 90 29" fill="none" xmlns="http://www.w3.org/2000/svg">
	<path fill-rule="evenodd" clip-rule="evenodd"
		d="M25.578 19.2936C25.7121 19.6056 25.8462 19.9622 25.9803 20.3188C26.3827 21.3439 26.4721 22.3245 26.338 23.3051C26.025 25.3553 24.6839 27.1382 22.7169 27.9405C22.0016 28.2525 21.2417 28.3862 20.437 28.3862C20.2135 28.3862 19.9452 28.3862 19.7217 28.3416C18.7829 28.2525 17.8441 27.9405 16.9053 27.4056C15.7877 26.7816 14.6701 25.8456 13.4184 24.5085C12.1667 25.8456 11.0938 26.7816 9.93144 27.4056C8.99264 27.9405 8.05385 28.2079 7.11506 28.3416C7.0033 28.3416 6.88036 28.3528 6.75742 28.3639C6.63448 28.3751 6.51155 28.3862 6.39979 28.3862C5.5951 28.3862 4.83513 28.2525 4.11986 27.9405C2.19756 27.1382 0.767021 25.3999 0.45409 23.3051C0.319977 22.2799 0.45409 21.2993 0.811726 20.3188C0.945839 19.9176 1.07995 19.6056 1.21407 19.2936L1.21409 19.2936L1.2141 19.2935C1.43761 18.8033 1.66112 18.313 1.83993 17.8673L1.88463 17.8228C3.85163 13.6331 5.90804 9.39877 8.05385 5.20905L8.14326 5.03077C8.36678 4.62962 8.5903 4.18391 8.81383 3.7382C8.87403 3.64387 8.93423 3.5479 8.99507 3.45091L8.99508 3.4509C9.25048 3.04376 9.5171 2.61873 9.84203 2.22277C10.7808 1.15305 12.0325 0.529053 13.4184 0.529053C14.7595 0.529053 16.056 1.15305 16.95 2.26734C17.3971 2.75762 17.71 3.29248 17.9782 3.78277C18.2018 4.22848 18.4253 4.6742 18.6488 5.07534L18.7382 5.25362C20.9287 9.44334 22.9851 13.6776 24.9074 17.8673H24.9521C25.131 18.313 25.3545 18.8033 25.578 19.2936L25.578 19.2936ZM47.5726 7.52677C47.5726 8.55191 46.7679 9.35419 45.7397 9.35419C44.7115 9.35419 43.9068 8.55191 43.9068 7.52677C43.9068 6.50162 44.7115 5.69934 45.7397 5.69934C46.8126 5.74391 47.5726 6.5462 47.5726 7.52677ZM40.107 11.1816V11.6273C40.107 11.6273 39.2576 10.5131 37.38 10.5131C34.3401 10.5131 31.9707 12.8308 31.9707 16.0399C31.9707 19.2045 34.3401 21.5668 37.38 21.5668C39.2576 21.5668 40.107 20.4079 40.107 20.4079V20.8982C40.107 21.1211 40.2858 21.2993 40.5093 21.2993H42.7892V10.7805H40.5093C40.2411 10.7805 40.107 10.9588 40.107 11.1816ZM37.827 19.0262C38.8552 19.0262 39.7046 18.4913 40.107 17.8673V14.1233C39.7046 13.5439 38.8105 12.9645 37.827 12.9645C36.0389 12.9645 34.653 14.0788 34.653 15.9953C34.653 17.9119 36.0389 19.0262 37.827 19.0262ZM47.0809 10.7805V21.2548H44.3986V10.7805H47.0809ZM81.7715 11.6273C81.7715 11.6273 82.6656 10.5131 84.4985 10.5131C87.5384 10.5131 89.9077 12.8308 89.9077 15.9953C89.9077 19.1599 87.5384 21.5222 84.4985 21.5222C82.6209 21.5222 81.7715 20.3633 81.7715 20.3633V20.8536C81.7715 21.0765 81.5927 21.2548 81.3692 21.2548H79.0893V5.74391H81.7715V11.6273ZM84.0515 18.9816C83.0233 18.9816 82.2186 18.4468 81.7715 17.8228V14.0788C82.1739 13.4993 83.068 12.9199 84.0515 12.9199C85.8396 12.9199 87.2255 14.0342 87.2255 15.9508C87.2255 17.8673 85.8396 18.9816 84.0515 18.9816ZM77.7034 21.2993V15.0593C77.7034 13.2765 77.3458 12.2959 76.4517 11.5382C75.647 10.8696 74.6635 10.5131 73.5012 10.5131C72.473 10.5131 71.4448 10.8251 70.6401 11.6273V11.1816C70.6401 10.9588 70.4613 10.7805 70.2378 10.7805H68.092V21.2993H70.7742V13.9896C71.3107 13.3656 72.1601 12.9645 72.9647 12.9645C74.44 12.9645 75.0211 13.6331 75.0211 15.3713V21.2993H77.7034ZM61.5651 10.5131C59.7322 10.5131 58.8381 11.6273 58.8381 11.6273V5.74391H56.1559V21.2548H58.4358C58.6593 21.2548 58.8381 21.0765 58.8381 20.8536V20.3633C58.8381 20.3633 59.6875 21.5222 61.5651 21.5222C64.605 21.5222 66.9743 19.1599 66.9743 15.9953C67.0191 12.8308 64.6497 10.5131 61.5651 10.5131ZM58.8381 17.8228C59.2852 18.4468 60.0899 18.9816 61.1181 18.9816C62.9062 18.9816 64.2921 17.8673 64.2921 15.9508C64.2921 14.0342 62.9062 12.9199 61.1181 12.9199C60.1346 12.9199 59.2405 13.4993 58.8381 14.0788V17.8228ZM53.8759 10.5131C54.6806 10.5131 55.1277 10.6468 55.1277 10.6468V13.1428C55.1277 13.1428 52.8924 12.3851 51.5066 13.9896V21.2993H48.8243V10.7805H51.1043C51.3278 10.7805 51.5066 10.9588 51.5066 11.1816V11.6273C51.9536 11.0479 53.0266 10.5131 53.8759 10.5131ZM13.3737 21.7451C11.8537 19.8285 10.8702 18.0456 10.5573 16.5748C10.4232 15.9508 10.3785 15.3713 10.4679 14.8811C10.5126 14.4353 10.6914 14.0342 10.9149 13.7222C11.4514 12.9645 12.3455 12.4742 13.3737 12.4742C14.4019 12.4742 15.3407 12.9199 15.8324 13.7222C16.056 14.0788 16.2348 14.4353 16.2795 14.8811C16.3689 15.3713 16.3242 15.9508 16.1901 16.5748C15.8771 18.0456 14.8936 19.8285 13.3737 21.7451ZM22.0016 26.3359C23.3875 25.8011 24.371 24.5531 24.5498 23.0822C24.6392 22.3245 24.5498 21.6559 24.4157 20.9428C24.3673 20.798 24.3058 20.6532 24.2383 20.4943C24.1811 20.3596 24.1196 20.2149 24.0581 20.0513C23.9463 19.8285 23.8457 19.5945 23.7451 19.3605C23.6445 19.1265 23.544 18.8925 23.4322 18.6696V18.6251C21.5099 14.4799 19.4535 10.2456 17.3077 6.10048L17.2183 5.9222C16.9947 5.47648 16.7712 5.03077 16.5477 4.62962C16.3242 4.18391 16.056 3.7382 15.743 3.38162C15.1619 2.71305 14.3572 2.35648 13.5078 2.35648C12.6584 2.35648 11.8537 2.71305 11.2726 3.38162C10.9596 3.78277 10.6914 4.18391 10.4679 4.62962C10.2444 5.07534 10.0208 5.52105 9.79733 5.9222L9.70792 6.10048C7.5174 10.2456 5.46099 14.4799 3.5387 18.6251L3.49399 18.6696C3.27047 19.1153 3.04695 19.6056 2.86813 20.0513L2.86812 20.0514C2.73401 20.3634 2.5999 20.6753 2.5105 20.9428C2.19756 21.7451 2.15286 22.4136 2.24227 23.1268C2.42109 24.5531 3.40459 25.8011 4.79042 26.3805C5.41629 26.6033 6.13156 26.7371 6.89153 26.6479C7.60681 26.5588 8.32208 26.3359 9.03735 25.9348C10.0208 25.3553 11.0491 24.5085 12.2114 23.2159C10.3785 20.9428 9.21617 18.8479 8.81383 17.0205C8.5903 16.1736 8.5456 15.3713 8.67971 14.6582C8.81383 13.9451 9.03735 13.3211 9.43969 12.7416C10.2891 11.5382 11.7643 10.7805 13.3737 10.7805C14.983 10.7805 16.4583 11.4936 17.3077 12.7416C17.71 13.3211 17.9335 13.9451 18.0677 14.6582C18.1571 15.3713 18.1124 16.1736 17.9335 17.0205C17.4865 18.8479 16.3689 20.8982 14.536 23.1713C15.6983 24.4639 16.6818 25.3108 17.71 25.8902C18.47 26.2913 19.1406 26.5142 19.8558 26.6033C20.6158 26.6925 21.3311 26.6033 22.0016 26.3359Z"
		fill="#E74969" />
</svg>