<svg width="91" height="24" viewBox="0 0 91 24" fill="none" xmlns="http://www.w3.org/2000/svg">
	<path fill-rule="evenodd" clip-rule="evenodd"
		d="M13.7191 2.04183C13.7191 2.969 12.9104 3.76372 11.9669 3.76372C11.0234 3.76372 10.2147 2.969 10.2147 2.04183C10.2147 1.11466 11.0234 0.319946 11.9669 0.319946C12.9104 0.319946 13.7191 1.11466 13.7191 2.04183ZM11.9669 5.17655C10.9335 5.17655 10.1248 5.97127 10.1248 6.98674C10.1248 8.00221 10.9335 8.79693 11.9669 8.79693C13.0002 8.79693 13.8089 8.00221 13.8089 6.98674C13.8089 5.92712 13.0002 5.17655 11.9669 5.17655ZM10.0799 11.8433C10.0799 10.8279 10.9335 9.989 11.9669 9.989C13.0002 9.989 13.8988 10.8279 13.8538 11.8433C13.8538 12.8588 13.0002 13.6977 11.9669 13.6977C10.9335 13.6977 10.0799 12.8588 10.0799 11.8433ZM11.9669 14.8898C10.9335 14.8898 10.1248 15.6845 10.1248 16.6999C10.1248 17.7154 10.9335 18.5101 11.9669 18.5101C13.0002 18.5101 13.8089 17.7154 13.8089 16.6999C13.8089 15.7286 13.0002 14.8898 11.9669 14.8898ZM10.2147 21.6007C10.2147 20.6735 11.0234 19.8788 11.9669 19.8788C12.9553 19.8788 13.7191 20.6735 13.7191 21.6007C13.7191 22.5279 12.9104 23.3226 11.9669 23.3226C11.0234 23.3226 10.2147 22.5279 10.2147 21.6007ZM16.8191 4.9558C15.6959 4.9558 14.7524 5.88297 14.7524 6.98674C14.7524 8.09051 15.6959 9.01768 16.8191 9.01768C17.9423 9.01768 18.8858 8.09051 18.8858 6.98674C18.8858 5.88297 17.9423 4.9558 16.8191 4.9558ZM14.6625 11.8875C14.6625 10.6954 15.651 9.76825 16.8191 9.76825C17.9872 9.76825 18.9756 10.6954 18.9756 11.8875C18.9756 13.0796 17.9872 14.0067 16.8191 14.0067C15.606 14.0067 14.6625 13.0354 14.6625 11.8875ZM16.8191 14.669C15.6959 14.669 14.7524 15.5962 14.7524 16.6999C14.7524 17.8037 15.6959 18.7309 16.8191 18.7309C17.9423 18.7309 18.8858 17.8037 18.8858 16.6999C18.8858 15.5962 17.9423 14.669 16.8191 14.669ZM19.4249 11.8433C19.4249 10.5188 20.5481 9.50334 21.8061 9.50334C23.0641 9.50334 24.0974 10.5188 24.1873 11.8433C24.1873 13.1679 23.1539 14.1833 21.8061 14.1833C20.4583 14.1833 19.4249 13.0796 19.4249 11.8433ZM7.06971 5.3973C6.21608 5.3973 5.49723 6.10372 5.49723 6.94259C5.49723 7.78146 6.21608 8.48787 7.06971 8.48787C7.92334 8.48787 8.64219 7.78146 8.64219 6.94259C8.64219 6.10372 7.96827 5.3973 7.06971 5.3973ZM5.40737 11.8433C5.40737 10.9162 6.12622 10.2098 7.06971 10.2098C8.0132 10.2098 8.73205 10.9162 8.73205 11.8433C8.73205 12.7705 8.0132 13.4769 7.06971 13.4769C6.12622 13.4769 5.40737 12.7705 5.40737 11.8433ZM7.06971 15.1105C6.21608 15.1105 5.49723 15.8169 5.49723 16.6558C5.49723 17.4947 6.21608 18.2011 7.06971 18.2011C7.92334 18.2011 8.64219 17.4947 8.64219 16.6558C8.64219 15.8169 7.96827 15.1105 7.06971 15.1105ZM0.734863 11.8875C0.734863 11.0928 1.36386 10.4747 2.17256 10.4747C2.98126 10.4747 3.61026 11.0928 3.61026 11.8875C3.61026 12.6822 2.98126 13.3003 2.17256 13.3003C1.36386 13.3003 0.734863 12.6822 0.734863 11.8875Z"
		fill="#2CBFBE" />
	<path
		d="M42.0686 8.84106C41.8889 8.84106 41.7542 9.01767 41.7542 9.15012V21.3799C41.7542 21.5565 41.9339 21.689 42.0686 21.689H43.5513C43.731 21.689 43.8658 21.5124 43.8658 21.3799V9.15012C43.8658 8.97352 43.6861 8.84106 43.5513 8.84106H42.0686Z"
		fill="#2CBFBE" />
	<path
		d="M42.8774 3.67542C42.0687 3.67542 41.4397 4.29353 41.4397 5.08825C41.4397 5.88296 42.0687 6.50108 42.8774 6.50108C43.6861 6.50108 44.3151 5.88296 44.3151 5.08825C44.3151 4.29353 43.6412 3.67542 42.8774 3.67542Z"
		fill="#2CBFBE" />
	<path
		d="M73.9676 8.84106C73.7879 8.84106 73.6531 9.01767 73.6531 9.15012V21.3799C73.6531 21.5565 73.8328 21.689 73.9676 21.689H75.4502C75.6299 21.689 75.7647 21.5124 75.7647 21.3799V9.15012C75.7647 8.97352 75.585 8.84106 75.4502 8.84106H73.9676Z"
		fill="#2CBFBE" />
	<path
		d="M74.6864 3.67542C73.8776 3.67542 73.2487 4.29353 73.2487 5.08825C73.2487 5.88296 73.8776 6.50108 74.6864 6.50108C75.4951 6.50108 76.124 5.88296 76.124 5.08825C76.124 4.29353 75.4951 3.67542 74.6864 3.67542Z"
		fill="#2CBFBE" />
	<path fill-rule="evenodd" clip-rule="evenodd"
		d="M89.8562 20.3499C89.8469 20.3929 89.8242 20.4449 89.7691 20.4969C89.7691 20.5852 89.6755 20.6735 89.4883 20.6293L89.56 20.712C89.5507 20.7155 89.5423 20.7176 89.5351 20.7176H89.3947L89.7223 21.115H89.9095L89.56 20.712C89.5756 20.706 89.5939 20.6959 89.614 20.6847C89.6595 20.6596 89.7143 20.6293 89.7691 20.6293C89.8627 20.6293 89.8627 20.541 89.8627 20.4527C89.8627 20.4164 89.8627 20.3801 89.8562 20.3499ZM89.2075 20.7176V20.5852V20.1878H89.5351C89.6287 20.1878 89.7223 20.1878 89.7691 20.2761C89.8242 20.2761 89.8469 20.3067 89.8562 20.3499C89.8627 20.3199 89.8627 20.2943 89.8627 20.2761V20.1878C89.8627 20.1878 89.8627 20.0995 89.7691 20.0995C89.7691 20.0995 89.6755 20.0112 89.5819 20.0112H89.3947H88.9735V21.115H89.1607V20.7176H89.2075Z"
		fill="#8C98A4" />
	<path fill-rule="evenodd" clip-rule="evenodd"
		d="M88.3894 20.5852C88.3894 20.0554 88.8836 19.5697 89.4227 19.5697C90.0068 19.5697 90.4561 20.0112 90.4561 20.5852C90.4561 21.115 89.9619 21.6006 89.4227 21.6006C88.8836 21.6006 88.3894 21.115 88.3894 20.5852ZM88.4793 20.5852C88.4793 21.115 88.8836 21.5123 89.4227 21.5123C89.917 21.5123 90.3662 21.115 90.3662 20.5852C90.3662 20.0554 89.9619 19.658 89.4227 19.658C88.8836 19.658 88.4793 20.0554 88.4793 20.5852Z"
		fill="#8C98A4" />
	<path
		d="M54.4238 10.8278C54.6035 10.8278 54.7383 10.6512 54.7383 10.5188V9.06178C54.7383 8.88518 54.5586 8.75273 54.4238 8.75273H51.2339V4.07273C51.2339 3.89612 51.0542 3.76367 50.9194 3.76367H49.4368C49.2571 3.76367 49.1223 3.94028 49.1223 4.07273V8.75273H47.5498C47.3701 8.75273 47.2354 8.92933 47.2354 9.06178V10.5188C47.2354 10.6954 47.4151 10.8278 47.5498 10.8278H49.1223V17.892C49.1223 20.0554 50.605 21.4682 52.7615 21.4682H54.334C54.5137 21.4682 54.6485 21.2916 54.6485 21.1591V19.7022C54.6485 19.5256 54.4688 19.3931 54.334 19.3931H52.9861C51.9528 19.3931 51.2339 18.6867 51.2339 17.5829V10.7837H54.4238V10.8278Z"
		fill="#2CBFBE" />
	<path
		d="M85.9634 10.8278C86.1431 10.8278 86.2779 10.6512 86.2779 10.5188V9.06178C86.2779 8.88518 86.0982 8.75273 85.9634 8.75273H82.7735V4.07273C82.7735 3.89612 82.5938 3.76367 82.459 3.76367H80.9764C80.7967 3.76367 80.6619 3.94028 80.6619 4.07273V8.75273H79.0894C78.9097 8.75273 78.7749 8.92933 78.7749 9.06178V10.5188C78.7749 10.6954 78.9546 10.8278 79.0894 10.8278H80.6619V17.892C80.6619 20.0554 82.1445 21.4682 84.301 21.4682H85.8735C86.0532 21.4682 86.188 21.2916 86.188 21.1591V19.7022C86.188 19.5256 86.0083 19.3931 85.8735 19.3931H84.4358C83.4025 19.3931 82.6836 18.6867 82.6836 17.5829V10.7837H85.9185L85.9634 10.8278Z"
		fill="#2CBFBE" />
	<path
		d="M32.6338 10.8278V21.2474C32.6338 21.424 32.8135 21.5565 32.9483 21.5565H34.4309C34.6106 21.5565 34.7454 21.3799 34.7454 21.2474V10.8278H38.2498C38.4295 10.8278 38.5643 10.6512 38.5643 10.5188V9.06179C38.5643 8.88518 38.3846 8.75273 38.2498 8.75273H34.7454V6.01537C34.7454 4.9116 35.5541 4.16103 36.4976 4.16103H38.2498C38.4295 4.16103 38.5643 3.98443 38.5643 3.85198V2.39499C38.5643 2.21839 38.3846 2.08594 38.2498 2.08594H36.5875C34.386 2.08594 32.6338 3.89613 32.6338 5.97122V8.75273H31.0613C30.8816 8.75273 30.7468 8.92933 30.7468 9.06179V10.5188C30.7468 10.6954 30.9265 10.8278 31.0613 10.8278H32.6338Z"
		fill="#2CBFBE" />
	<path fill-rule="evenodd" clip-rule="evenodd"
		d="M64.3529 8.35542C66.1051 8.35542 67.7675 9.06183 68.9356 10.2981C70.1037 11.5343 70.7327 13.2562 70.7327 15.1547C70.7327 19.8788 67.453 21.9981 64.308 21.9981C61.1181 21.9981 57.8833 19.923 57.8833 15.1547V2.30674C57.8833 2.17428 58.0181 1.99768 58.1978 1.99768H59.6804C59.8152 1.99768 59.9949 2.13013 59.9949 2.30674V10.0773C61.0283 9.06183 62.6906 8.35542 64.3529 8.35542ZM59.95 15.1988C59.95 17.5388 61.1181 20.0113 64.308 20.0113C67.4979 20.0113 68.6211 17.5388 68.666 15.1988C68.666 12.3732 66.9138 10.4305 64.308 10.4305C61.7022 10.4305 59.95 12.329 59.95 15.1988Z"
		fill="#2CBFBE" />
</svg>