<svg width="90" height="31" viewBox="0 0 90 31" fill="none" xmlns="http://www.w3.org/2000/svg">
	<path
		d="M22.3548 11.2031H11.8794V14.2919H19.3286C18.9561 18.6443 15.3246 20.5631 11.926 20.5631C7.54954 20.5631 3.73183 17.0999 3.73183 12.2795C3.73183 7.55273 7.36331 3.90233 11.926 3.90233C15.4643 3.90233 17.5129 6.14873 17.5129 6.14873L19.6545 3.90233C19.6545 3.90233 16.861 0.81353 11.7863 0.81353C5.31478 0.76673 0.33313 6.24233 0.33313 12.1859C0.33313 17.9891 5.03544 23.6519 11.9725 23.6519C18.0715 23.6519 22.5411 19.4867 22.5411 13.2623C22.5411 11.9519 22.3548 11.2031 22.3548 11.2031Z"
		fill="#3780FF" />
	<path fill-rule="evenodd" clip-rule="evenodd"
		d="M23.5188 16.2107C23.5188 12.2795 26.5916 8.90991 30.8749 8.90991C34.4133 8.90991 38.231 11.4371 38.2775 16.3043C38.2775 20.6099 35.0185 23.6519 30.968 23.6519C26.4985 23.6519 23.5188 20.2355 23.5188 16.2107ZM35.0185 16.3043C35.0185 13.5899 33.0165 11.8583 30.9214 11.8583C28.547 11.8583 26.7313 13.7303 26.7778 16.2575C26.7778 18.8783 28.5936 20.7503 30.9214 20.7503C33.0631 20.7503 35.0185 19.0187 35.0185 16.3043Z"
		fill="#FA3913" />
	<path fill-rule="evenodd" clip-rule="evenodd"
		d="M39.5345 16.2107C39.5345 12.2795 42.6073 8.90991 46.8906 8.90991C50.429 8.90991 54.2467 11.4371 54.2933 16.3043C54.2933 20.6099 51.0343 23.6519 46.9837 23.6519C42.5142 23.6519 39.5345 20.2355 39.5345 16.2107ZM51.0343 16.3043C51.0343 13.5899 49.0323 11.8583 46.9372 11.8583C44.5628 11.8583 42.747 13.7303 42.7936 16.2575C42.7936 18.8783 44.6093 20.7503 46.9372 20.7503C49.0788 20.7503 51.0343 19.0187 51.0343 16.3043Z"
		fill="#FCBD06" />
	<path fill-rule="evenodd" clip-rule="evenodd"
		d="M55.5503 16.3044C55.5503 12.42 58.6231 8.95679 62.5805 8.95679C64.3031 8.95679 65.6067 9.61199 66.4448 10.6416V9.37799H69.5175V22.6224C69.5175 27.8172 66.5379 30.2976 62.627 30.2976C59.0421 30.2976 57.0401 28.098 56.0624 25.992L58.9024 24.822C59.3215 25.758 60.4388 27.4428 62.6736 27.4428C65.0015 27.4428 66.5379 25.8984 66.5379 23.3712V21.9204C65.6533 22.9032 64.5824 23.6988 62.4874 23.6988C59.1352 23.6988 55.5503 20.7036 55.5503 16.3044ZM66.7707 16.3512C66.7707 13.5432 64.7687 11.8584 62.8598 11.8584C60.8113 11.8584 58.8093 13.4964 58.7628 16.398C58.7628 19.0656 60.7182 20.7972 62.8133 20.7972C64.8152 20.7972 66.7707 19.2528 66.7707 16.3512Z"
		fill="#3780FF" />
	<path fill-rule="evenodd" clip-rule="evenodd"
		d="M76.4547 16.2575C76.4547 11.8583 79.5741 8.90991 83.2987 8.90991C86.1852 8.90991 88.3734 10.8755 89.3511 13.1219L89.8633 14.3387L80.0396 18.4571C80.6449 19.5803 81.576 20.7035 83.6246 20.7035C85.4403 20.7035 86.5577 19.7207 87.2095 18.6911L89.7702 20.4227C88.6528 21.9203 86.6974 23.6519 83.6246 23.6519C79.9465 23.6519 76.4547 20.8907 76.4547 16.2575ZM86.1387 13.3559C85.6731 12.4667 84.7419 11.7647 83.3918 11.7647C81.2967 11.7647 79.2482 13.9643 79.6206 16.1171L86.1387 13.3559Z"
		fill="#FA3913" />
	<path d="M71.799 23.2307H75.0114V1.5155H71.799V23.2307Z" fill="#38B137" />
</svg>