<svg width="90" height="25" viewBox="0 0 90 25" fill="none" xmlns="http://www.w3.org/2000/svg">
	<path fill-rule="evenodd" clip-rule="evenodd"
		d="M12.5848 23.0776C11.741 23.2161 10.8971 23.3026 10.0313 23.3913L10.0311 23.3913C9.51396 23.4443 8.98898 23.4981 8.45143 23.5643L4.13834 11.0866V24.0953C2.7905 24.228 1.57745 24.405 0.274536 24.6263V0.776978H3.86878L8.76593 14.3166V0.776978H12.5848V23.0776ZM22.6971 9.49211L22.6972 9.49211C23.5899 9.47052 24.4619 9.44944 25.1197 9.44944V13.1662C23.4574 13.1662 21.4806 13.1662 20.0429 13.2547V18.7856C20.743 18.7434 21.4477 18.6967 22.1555 18.6498C23.6732 18.5492 25.2052 18.4477 26.7371 18.3874V21.9714L16.2689 22.7679V0.776978H26.7371V4.49375H20.0429V9.53794C20.8018 9.53794 21.7609 9.51475 22.6971 9.49211ZM36.8459 4.538H40.7547C40.7547 4.538 40.7547 0.776978 40.7996 0.776978H29.1632V4.538H33.072V21.7059C34.285 21.6617 35.5879 21.6617 36.8459 21.6617V4.538ZM46.9098 9.27245H52.0765V12.9892H46.9098V21.4405H43.1808V0.776978H53.7389V4.49375H46.9098V9.27245ZM63.8119 18.344L63.8118 18.344C62.5126 18.2688 61.2033 18.193 59.894 18.1662V0.776978H56.12V21.6617C59.5795 21.7502 62.9491 21.9272 66.3187 22.1484V18.4759C65.4892 18.4411 64.6528 18.3927 63.8122 18.344L63.8119 18.344ZM70.7835 22.4954L70.7839 22.4955C71.5934 22.5437 72.4155 22.5926 73.2376 22.6794V0.776978H69.5086V22.4139C69.9288 22.4445 70.3544 22.4699 70.7835 22.4954ZM84.9638 12.1043L89.7711 0.776978H85.5928L82.942 7.01584L80.471 0.776978H76.4275L80.8304 11.9715L75.9782 22.8564C76.5173 22.9272 77.0565 22.9838 77.5956 23.0404C78.4043 23.1254 79.213 23.2103 80.0217 23.3431L82.8073 17.0157L85.5029 23.9183C86.0064 23.9958 86.5044 24.0787 87.0008 24.1613C87.9217 24.3146 88.8369 24.467 89.7711 24.582L84.9638 12.1043Z"
		fill="#D81F26" />
</svg>