<svg width="104" height="30" viewBox="0 0 104 30" fill="none" xmlns="http://www.w3.org/2000/svg">
	<path
		d="M19.2806 2.99519C18.8708 1.65252 17.4365 0.92954 16.1047 1.34267C14.7729 1.7558 14.0557 3.20176 14.4655 4.54444L21.0222 24.8911C21.4832 26.1305 22.815 26.8535 24.0956 26.492C25.4274 26.0789 26.247 24.6846 25.8372 23.3419C25.8372 23.2903 19.2806 2.99519 19.2806 2.99519"
		fill="#FAAD13" />
	<path
		d="M9.13822 6.35188C8.72843 5.00921 7.29416 4.28623 5.96234 4.69936C4.63052 5.11249 3.91339 6.55845 4.32318 7.90113L10.8798 28.2478C11.3408 29.4872 12.6727 30.2102 13.9533 29.8487C15.2851 29.4356 16.1047 28.0413 15.6949 26.6986C15.6949 26.6469 9.13822 6.35188 9.13822 6.35188"
		fill="#36B37E" />
	<path
		d="M27.5788 19.8819C28.9106 19.4688 29.6278 18.0228 29.218 16.6801C28.8082 15.3375 27.3739 14.6145 26.0421 15.0276L5.80867 21.5861C4.5793 22.0508 3.86217 23.3935 4.22073 24.6845C4.63052 26.0272 6.01357 26.8535 7.34539 26.4404C7.44784 26.4404 27.5788 19.8819 27.5788 19.8819"
		fill="#D81F26" />
	<path opacity="0.2"
		d="M10.0091 25.6141C11.3409 25.201 13.0313 24.6329 14.8241 24.0132C14.4143 22.6705 13.8509 20.9664 13.2362 19.1589L8.42114 20.7598L10.0091 25.6141"
		fill="white" />
	<path opacity="0.2"
		d="M20.2026 22.2574C22.0466 21.6377 23.737 21.1213 25.0176 20.6565C24.6078 19.3139 24.0444 17.6097 23.4297 15.8022L18.6146 17.4031L20.2026 22.2574"
		fill="white" />
	<path
		d="M24.2493 9.60529C25.5811 9.19215 26.2982 7.7462 25.8884 6.40352C25.4787 5.06084 24.0444 4.33786 22.7126 4.751L2.53035 11.3611C1.30098 11.8259 0.583846 13.1685 0.942413 14.4596C1.3522 15.8539 2.73525 16.6802 4.06707 16.2154C4.11829 16.2154 24.2493 9.60529 24.2493 9.60529"
		fill="#00B8D9" />
	<path opacity="0.2"
		d="M6.73076 15.3375C8.06258 14.9244 9.75297 14.3563 11.5458 13.7366C10.9311 11.8775 10.4189 10.1734 9.95787 8.88232L5.14282 10.4832L6.73076 15.3375"
		fill="white" />
	<path opacity="0.2"
		d="M16.8731 12.0324C18.7172 11.4127 20.4075 10.8963 21.6881 10.4316C21.0735 8.57247 20.5612 6.8683 20.1002 5.57727L15.2852 7.17815L16.8731 12.0324"
		fill="white" />
	<path
		d="M48.0172 8.36587C48.888 8.779 48.9904 9.03721 48.2733 10.3799C47.5562 11.7742 47.4025 11.8258 46.4805 11.4644C45.3535 10.9996 43.9705 10.6381 43.0485 10.6381C41.563 10.6381 40.5897 11.1545 40.5897 11.9808C40.5897 14.6661 49.1441 13.2202 49.1441 19.004C49.1441 21.8959 46.6854 23.8066 42.9972 23.8066C41.0507 23.8066 38.6432 23.1353 37.0041 22.309C36.1845 21.8959 36.1332 21.6377 36.8504 20.2434C37.4651 19.0556 37.67 18.9007 38.5408 19.2622C39.975 19.8819 41.7167 20.3467 42.946 20.3467C44.3291 20.3467 45.1999 19.7786 45.1999 18.9524C45.1999 16.3186 36.4918 17.558 36.4918 11.9808C36.4918 9.03721 38.9506 7.02319 42.5875 7.02319C44.3291 7.17812 46.5317 7.69453 48.0172 8.36587"
		fill="#183B56" />
	<path
		d="M54.9323 1.54919V23.032C54.9323 23.3418 54.5738 23.7033 54.1127 23.7033H51.8589C51.3466 23.7033 51.0393 23.3418 51.0393 23.032V1.54919C51.0393 0.46472 51.3466 0.413079 52.9858 0.413079C54.8299 0.361437 54.9323 0.516361 54.9323 1.54919"
		fill="#183B56" />
	<path fill-rule="evenodd" clip-rule="evenodd"
		d="M70.8118 22.8254V13.5816C70.8118 9.5536 68.097 7.1781 63.7942 7.1781C61.8477 7.1781 59.6963 7.7978 58.1595 8.83062C57.34 9.34704 57.34 9.60525 58.1595 10.8963C59.0303 12.1873 59.184 12.239 60.0036 11.7742C61.0281 11.1545 62.3087 10.7414 63.3844 10.7414C65.6382 10.7414 66.97 11.7742 66.97 13.4783V14.5628C65.8943 14.098 64.5625 13.8398 63.1283 13.8398C59.2865 13.8398 56.7765 15.9055 56.7765 19.004C56.7765 21.8959 59.0303 23.8583 62.3599 23.8583C64.1015 23.8583 65.8431 23.1353 67.0213 21.7926L66.97 22.7738C66.9188 23.2902 67.2774 23.6517 67.7896 23.6517H69.9922C70.4533 23.6517 70.8118 23.3419 70.8118 22.8254ZM62.8209 20.7598C61.4379 20.7598 60.5158 20.0368 60.5158 18.9523C60.5158 17.6097 61.8989 16.5768 63.9478 16.5768C64.9211 16.5768 66.048 16.7318 66.9188 17.0932V18.5392C66.048 19.9335 64.5113 20.7598 62.8209 20.7598Z"
		fill="#183B56" />
	<path
		d="M86.0253 8.4175C86.8449 8.88228 86.8449 9.14048 85.9741 10.5348C85.1545 11.8258 85.0008 11.9291 84.0788 11.4643C83.4129 11.1029 82.286 10.793 81.4152 10.793C78.5979 10.793 76.7538 12.6521 76.7538 15.4924C76.7538 18.4359 78.5979 20.3983 81.4152 20.3983C82.3884 20.3983 83.6178 20.0368 84.3862 19.572C85.2057 19.1073 85.3594 19.1073 86.2302 20.3983C86.9986 21.5861 86.9986 21.8443 86.2814 22.3607C85.0521 23.2386 83.0543 23.9099 81.3127 23.9099C76.1391 23.9099 72.6559 20.5532 72.6559 15.544C72.6559 10.5348 76.1391 7.22975 81.3639 7.22975C83.0031 7.17811 84.8472 7.69452 86.0253 8.4175"
		fill="#183B56" />
	<path
		d="M102.98 21.6377C103.646 22.464 103.39 22.7738 101.751 23.3419C100.112 23.9616 99.8557 23.9099 99.2923 23.1353L94.6309 16.8867L92.5307 18.9007V22.9804C92.5307 23.2902 92.1721 23.6517 91.7111 23.6517H89.4573C88.945 23.6517 88.6377 23.2902 88.6377 22.9804V1.5492C88.6377 0.464727 88.945 0.413086 90.5842 0.413086C92.4795 0.413086 92.5307 0.56801 92.5307 1.5492V13.7366L98.8825 7.59124C99.5996 6.9199 99.9582 6.97154 101.239 7.7978C102.622 8.67571 102.724 8.93391 102.058 9.60525L97.3458 14.253L102.98 21.6377"
		fill="#183B56" />
</svg>